<svg width="17" height="19" viewBox="0 0 17 19" fill="none" xmlns="http://www.w3.org/2000/svg">
<path d="M15.9535 9.12735C15.7084 9.37239 15.3817 9.49492 15.055 9.49492C14.6874 9.49492 14.3607 9.37239 14.1157 9.12735L9.82738 4.83908V17.3363C9.82738 18.0715 9.21477 18.6432 8.52048 18.6432C7.86703 18.6432 7.21358 18.0715 7.21358 17.3363V4.83908L2.88447 9.12735C2.39438 9.65828 1.53672 9.65828 1.04663 9.12735C0.515705 8.63726 0.515705 7.77961 1.04663 7.28952L7.58115 0.755008C8.07123 0.224079 8.92889 0.224079 9.41898 0.755008L15.9535 7.28952C16.4844 7.77961 16.4844 8.63726 15.9535 9.12735Z" fill="white"/>
</svg>
