<svg width="14" height="11" viewBox="0 0 14 11" fill="none" xmlns="http://www.w3.org/2000/svg">
<path d="M7.04404 3.22827C7.11435 3.22827 7.18466 3.20483 7.25497 3.20483C8.49716 3.20483 9.50497 4.21265 9.50497 5.45483C9.50497 6.69702 8.49716 7.70483 7.25497 7.70483C5.98935 7.70483 5.00497 6.69702 5.00497 5.45483C5.00497 5.40796 5.00497 5.33765 5.00497 5.26733C5.21591 5.38452 5.47372 5.45483 5.75497 5.45483C6.57529 5.45483 7.25497 4.79858 7.25497 3.95483C7.25497 3.69702 7.16122 3.43921 7.04404 3.22827ZM11.755 2.10327C12.8565 3.11108 13.5831 4.32983 13.9347 5.17358C14.005 5.36108 14.005 5.57202 13.9347 5.75952C13.5831 6.57983 12.8565 7.79858 11.755 8.82983C10.6534 9.86108 9.12997 10.7048 7.25497 10.7048C5.35654 10.7048 3.8331 9.86108 2.73154 8.82983C1.62997 7.79858 0.903412 6.57983 0.551849 5.75952C0.481537 5.57202 0.481537 5.36108 0.551849 5.17358C0.903412 4.32983 1.62997 3.11108 2.73154 2.10327C3.8331 1.07202 5.35654 0.204834 7.25497 0.204834C9.12997 0.204834 10.6534 1.07202 11.755 2.10327ZM7.25497 2.07983C5.37997 2.07983 3.87997 3.60327 3.87997 5.45483C3.87997 7.32983 5.37997 8.82983 7.25497 8.82983C9.10654 8.82983 10.63 7.32983 10.63 5.45483C10.63 3.60327 9.10654 2.07983 7.25497 2.07983Z" fill="#757575"/>
</svg>
