<svg width="17" height="18" viewBox="0 0 17 18" fill="none" xmlns="http://www.w3.org/2000/svg">
<path d="M12.0625 1.625C12.8438 0.84375 14.125 0.84375 14.9062 1.625L16.125 2.84375C16.9062 3.625 16.9062 4.90625 16.125 5.6875L14.625 7.1875L10.5625 3.125L12.0625 1.625ZM13.9062 7.90625L6.625 15.1875C6.3125 15.5 5.90625 15.75 5.46875 15.875L1.6875 16.9688C1.4375 17.0625 1.15625 17 0.96875 16.7812C0.75 16.5938 0.6875 16.3125 0.75 16.0625L1.875 12.2812C2 11.8438 2.25 11.4375 2.5625 11.125L9.84375 3.84375L13.9062 7.90625Z" fill="white"/>
</svg>
