<svg width="17" height="17" viewBox="0 0 17 17" fill="none" xmlns="http://www.w3.org/2000/svg">
<path d="M15.7857 6.67857C16.4308 6.67857 17 7.24777 17 7.89286V9.10714C17 9.79018 16.4308 10.3214 15.7857 10.3214H10.3214V15.7857C10.3214 16.4688 9.75223 17 9.10714 17H7.89286C7.20982 17 6.67857 16.4688 6.67857 15.7857V10.3214H1.21429C0.53125 10.3214 0 9.79018 0 9.10714V7.89286C0 7.24777 0.53125 6.67857 1.21429 6.67857H6.67857V1.21429C6.67857 0.569196 7.20982 0 7.89286 0H9.10714C9.75223 0 10.3214 0.569196 10.3214 1.21429V6.67857H15.7857Z" fill="white"/>
</svg>
