<svg width="16" height="15" viewBox="0 0 16 15" fill="none" xmlns="http://www.w3.org/2000/svg">
<path d="M8 4.625C9.44922 4.625 10.5977 5.82812 10.5977 7.25C10.5977 8.69922 9.44922 9.875 8 9.875C6.52344 9.875 5.375 8.64453 5.375 7.22266C5.375 5.80078 6.52344 4.625 8 4.625ZM14.918 9.73828C15.082 10.0117 14.9453 10.3398 14.6445 10.3945L11.6641 10.9414L11.1172 13.9219C11.0625 14.2227 10.7344 14.3594 10.4883 14.1953L8 12.4727L5.48438 14.1953C5.23828 14.3594 4.91016 14.2227 4.85547 13.9219L4.30859 10.9414L1.32812 10.3945C1.02734 10.3398 0.890625 10.0117 1.05469 9.76562L2.77734 7.25L1.05469 4.76172C0.890625 4.51562 1.02734 4.1875 1.32812 4.13281L4.30859 3.58594L4.82812 0.605469C4.88281 0.304688 5.21094 0.167969 5.48438 0.332031L8 2.05469L10.4883 0.304688C10.7344 0.140625 11.0625 0.277344 11.1172 0.578125L11.6641 3.55859L14.6445 4.10547C14.9453 4.16016 15.082 4.48828 14.918 4.76172L13.1953 7.25L14.918 9.73828ZM8 10.75C9.91406 10.75 11.4727 9.19141 11.4727 7.25C11.4727 5.36328 9.88672 3.77734 8 3.77734C6.08594 3.77734 4.5 5.33594 4.5 7.25C4.5 9.16406 6.05859 10.75 8 10.75Z" fill="white"/>
</svg>
