<svg width="15" height="16" viewBox="0 0 15 16" fill="none" xmlns="http://www.w3.org/2000/svg">
<path d="M4.96875 0.5625C5.125 0.21875 5.46875 0 5.84375 0H9.625C10 0 10.3438 0.21875 10.5 0.5625L10.75 1H13.75C14.2812 1 14.75 1.46875 14.75 2C14.75 2.5625 14.2812 3 13.75 3H1.75C1.1875 3 0.75 2.5625 0.75 2C0.75 1.46875 1.1875 1 1.75 1H4.75L4.96875 0.5625ZM13.0625 14.5938C13.0312 15.4062 12.375 16 11.5625 16H3.90625C3.09375 16 2.4375 15.4062 2.40625 14.5938L1.71875 4H13.75L13.0625 14.5938Z" fill="#FF1100"/>
</svg>
