<svg width="13" height="13" viewBox="0 0 13 13" fill="none" xmlns="http://www.w3.org/2000/svg">
<path d="M13 11.7505C13 12.2153 12.6172 12.6255 12.125 12.6255L1.625 12.6255C1.16016 12.6255 0.75 12.2153 0.75 11.7505C0.75 11.2583 1.16016 10.8755 1.625 10.8755L12.125 10.8755C12.6172 10.8755 13 11.2583 13 11.7505ZM7.75 8.25049C7.75 8.71533 7.36719 9.12549 6.875 9.12549L1.625 9.12549C1.16016 9.12549 0.75 8.71533 0.75 8.25049C0.75 7.7583 1.16016 7.37549 1.625 7.37549L6.875 7.37549C7.36719 7.37549 7.75 7.7583 7.75 8.25049ZM1.625 5.62549C1.16016 5.62549 0.750001 5.21533 0.750001 4.75049C0.750001 4.2583 1.16016 3.87549 1.625 3.87549L6.875 3.87549C7.36719 3.87549 7.75 4.2583 7.75 4.75049C7.75 5.21533 7.36719 5.62549 6.875 5.62549L1.625 5.62549ZM13 1.25049C13 1.71533 12.6172 2.12549 12.125 2.12549L1.625 2.12549C1.16016 2.12549 0.750001 1.71533 0.750001 1.25049C0.750001 0.7583 1.16016 0.375487 1.625 0.375487L12.125 0.375488C12.6172 0.375488 13 0.758301 13 1.25049ZM12.3164 3.98486C12.5898 3.73877 13 3.95752 13 4.31299L13 8.66064C13 9.01611 12.5898 9.23486 12.3164 8.98877L9.52734 6.82861C9.30859 6.66455 9.30859 6.30908 9.52734 6.14502L12.3164 3.98486Z" fill="#000000"/>
</svg>
