<svg width="15" height="14" viewBox="0 0 15 14" fill="none" xmlns="http://www.w3.org/2000/svg">
<path d="M13.2227 0.875488C14.207 0.875488 14.9727 1.66846 14.9727 2.62549V11.3755C14.9727 12.3599 14.1797 13.1255 13.2227 13.1255H2.72266C1.76562 13.1255 0.972656 12.3599 0.972656 11.3755V2.62549C0.972656 1.66846 1.76562 0.875488 2.72266 0.875488H13.2227ZM4.03516 2.62549C3.32422 2.62549 2.72266 3.22705 2.72266 3.93799C2.72266 4.67627 3.26953 5.25049 4.03516 5.25049C4.77344 5.25049 5.34766 4.67627 5.34766 3.93799C5.34766 3.22705 4.74609 2.62549 4.03516 2.62549ZM13.1953 11.1567C13.25 11.02 13.25 10.8286 13.168 10.7192L9.66797 5.46924C9.58594 5.33252 9.44922 5.25049 9.3125 5.25049C9.14844 5.25049 9.01172 5.33252 8.92969 5.46924L6.38672 9.29736L5.48438 8.06689C5.40234 7.95752 5.29297 7.87549 5.15625 7.87549C4.99219 7.87549 4.88281 7.95752 4.80078 8.06689L2.88672 10.6919C2.77734 10.8286 2.77734 10.9927 2.83203 11.1567C2.91406 11.2935 3.05078 11.3755 3.24219 11.3755H12.8125C12.9492 11.3755 13.1133 11.2935 13.1953 11.1567Z" fill="#000000"/>
</svg>
