<svg width="13" height="14" viewBox="0 0 13 14" fill="none" xmlns="http://www.w3.org/2000/svg">
<path d="M0 1.75049C0 1.28564 0.382812 0.875488 0.875 0.875488H11.375C11.8398 0.875488 12.25 1.28564 12.25 1.75049C12.25 2.24268 11.8398 2.62549 11.375 2.62549H0.875C0.382812 2.62549 0 2.24268 0 1.75049ZM5.25 5.25049C5.25 4.78564 5.63281 4.37549 6.125 4.37549H11.375C11.8398 4.37549 12.25 4.78564 12.25 5.25049C12.25 5.74268 11.8398 6.12549 11.375 6.12549H6.125C5.63281 6.12549 5.25 5.74268 5.25 5.25049ZM11.375 7.87549C11.8398 7.87549 12.25 8.28564 12.25 8.75049C12.25 9.24268 11.8398 9.62549 11.375 9.62549H6.125C5.63281 9.62549 5.25 9.24268 5.25 8.75049C5.25 8.28564 5.63281 7.87549 6.125 7.87549H11.375ZM0 12.2505C0 11.7856 0.382812 11.3755 0.875 11.3755H11.375C11.8398 11.3755 12.25 11.7856 12.25 12.2505C12.25 12.7427 11.8398 13.1255 11.375 13.1255H0.875C0.382812 13.1255 0 12.7427 0 12.2505ZM0.683594 9.51611C0.410156 9.76221 0 9.54346 0 9.18799V4.84033C0 4.48486 0.410156 4.26611 0.683594 4.51221L3.47266 6.67236C3.69141 6.83643 3.69141 7.19189 3.47266 7.35596L0.683594 9.51611Z" fill="#000000"/>
</svg>
