<svg width="11" height="14" viewBox="0 0 11 14" fill="none" xmlns="http://www.w3.org/2000/svg">
<path d="M5.18 10.8345C4.424 10.8345 3.74733 10.6712 3.15 10.3445C2.55267 10.0085 2.08133 9.55115 1.736 8.97249C1.4 8.38449 1.232 7.72182 1.232 6.98449V0.936488H2.744V6.85849C2.744 7.33449 2.856 7.76382 3.08 8.14649C3.304 8.51982 3.598 8.81849 3.962 9.04249C4.33533 9.26649 4.74133 9.37849 5.18 9.37849C5.64667 9.37849 6.06667 9.26649 6.44 9.04249C6.82267 8.81849 7.126 8.51982 7.35 8.14649C7.574 7.76382 7.686 7.33449 7.686 6.85849V0.936488H9.128V6.98449C9.128 7.72182 8.95533 8.38449 8.61 8.97249C8.274 9.55115 7.80733 10.0085 7.21 10.3445C6.61267 10.6712 5.936 10.8345 5.18 10.8345Z" fill="#000000"/>
<path d="M0 12.5005H10.36V13.2005H0V12.5005Z" fill="#000000"/>
</svg>
